<svg width="128" height="128" viewBox="0 0 128 128" fill="none" xmlns="http://www.w3.org/2000/svg">
    <rect width="128" height="128" rx="16" fill="#3A73FF"/>
    <path d="M32 16C30.3431 16 29 17.3431 29 19V95.5858L48.7071 76.8787C49.0976 76.4882 49.7305 76.4882 50.1211 76.8787L70 96.7574V19C70 17.3431 68.6569 16 67 16H32ZM31 18H67V91.2426L48.7071 73.9497C48.3166 73.5592 47.6834 73.5592 47.2929 73.9497L29 92.2426V19ZM31 94.8284L48.7071 77.1213C49.0976 76.7308 49.7305 76.7308 50.121 77.1213L67 94V94.8284L50.121 77.9497C49.7304 77.5592 49.0976 77.5592 48.7071 77.9497L31 95.6569V94.8284Z" fill="white"/>
</svg>
